<mxfile host="app.diagrams.net" modified="2024-02-04T03:54:27.625Z" agent="Mozilla/5.0 (Windows NT 10.0; Win64; x64) AppleWebKit/537.36 (KHTML, like Gecko) Chrome/121.0.0.0 Safari/537.36" etag="wIOIZLW0W4zHPXlyCcRX" version="23.1.1" type="device">
  <diagram id="R2lEEEUBdFMjLlhIrx00" name="Page-1">
    <mxGraphModel dx="1195" dy="622" grid="1" gridSize="10" guides="1" tooltips="1" connect="1" arrows="1" fold="1" page="1" pageScale="1.1" pageWidth="850" pageHeight="1100" math="0" shadow="0" extFonts="Permanent Marker^https://fonts.googleapis.com/css?family=Permanent+Marker">
      <root>
        <mxCell id="0" />
        <mxCell id="1" parent="0" />
        <mxCell id="DFiNrINudKd2fo3YDIdL-96" value="USER" style="shape=table;startSize=25;container=1;collapsible=0;childLayout=tableLayout;fixedRows=1;rowLines=1;fontStyle=1;align=center;resizeLast=1;" vertex="1" parent="1">
          <mxGeometry x="803" y="840" width="218" height="135" as="geometry" />
        </mxCell>
        <mxCell id="DFiNrINudKd2fo3YDIdL-97" style="shape=tableRow;horizontal=0;startSize=0;swimlaneHead=0;swimlaneBody=0;fillColor=none;collapsible=0;dropTarget=0;points=[[0,0.5],[1,0.5]];portConstraint=eastwest;top=0;left=0;right=0;bottom=0;" vertex="1" parent="DFiNrINudKd2fo3YDIdL-96">
          <mxGeometry y="25" width="218" height="22" as="geometry" />
        </mxCell>
        <mxCell id="DFiNrINudKd2fo3YDIdL-98" value="int" style="shape=partialRectangle;connectable=0;fillColor=none;top=0;left=0;bottom=0;right=0;align=left;spacingLeft=2;overflow=hidden;fontSize=11;" vertex="1" parent="DFiNrINudKd2fo3YDIdL-97">
          <mxGeometry width="36" height="22" as="geometry">
            <mxRectangle width="36" height="22" as="alternateBounds" />
          </mxGeometry>
        </mxCell>
        <mxCell id="DFiNrINudKd2fo3YDIdL-99" value="UserID" style="shape=partialRectangle;connectable=0;fillColor=none;top=0;left=0;bottom=0;right=0;align=left;spacingLeft=2;overflow=hidden;fontSize=11;" vertex="1" parent="DFiNrINudKd2fo3YDIdL-97">
          <mxGeometry x="36" width="62" height="22" as="geometry">
            <mxRectangle width="62" height="22" as="alternateBounds" />
          </mxGeometry>
        </mxCell>
        <mxCell id="DFiNrINudKd2fo3YDIdL-100" value="PK" style="shape=partialRectangle;connectable=0;fillColor=none;top=0;left=0;bottom=0;right=0;align=left;spacingLeft=2;overflow=hidden;fontSize=11;" vertex="1" parent="DFiNrINudKd2fo3YDIdL-97">
          <mxGeometry x="98" width="120" height="22" as="geometry">
            <mxRectangle width="120" height="22" as="alternateBounds" />
          </mxGeometry>
        </mxCell>
        <mxCell id="DFiNrINudKd2fo3YDIdL-101" style="shape=tableRow;horizontal=0;startSize=0;swimlaneHead=0;swimlaneBody=0;fillColor=none;collapsible=0;dropTarget=0;points=[[0,0.5],[1,0.5]];portConstraint=eastwest;top=0;left=0;right=0;bottom=0;" vertex="1" parent="DFiNrINudKd2fo3YDIdL-96">
          <mxGeometry y="47" width="218" height="22" as="geometry" />
        </mxCell>
        <mxCell id="DFiNrINudKd2fo3YDIdL-102" value="string" style="shape=partialRectangle;connectable=0;fillColor=none;top=0;left=0;bottom=0;right=0;align=left;spacingLeft=2;overflow=hidden;fontSize=11;" vertex="1" parent="DFiNrINudKd2fo3YDIdL-101">
          <mxGeometry width="36" height="22" as="geometry">
            <mxRectangle width="36" height="22" as="alternateBounds" />
          </mxGeometry>
        </mxCell>
        <mxCell id="DFiNrINudKd2fo3YDIdL-103" value="FullName" style="shape=partialRectangle;connectable=0;fillColor=none;top=0;left=0;bottom=0;right=0;align=left;spacingLeft=2;overflow=hidden;fontSize=11;" vertex="1" parent="DFiNrINudKd2fo3YDIdL-101">
          <mxGeometry x="36" width="62" height="22" as="geometry">
            <mxRectangle width="62" height="22" as="alternateBounds" />
          </mxGeometry>
        </mxCell>
        <mxCell id="DFiNrINudKd2fo3YDIdL-104" value="" style="shape=partialRectangle;connectable=0;fillColor=none;top=0;left=0;bottom=0;right=0;align=left;spacingLeft=2;overflow=hidden;fontSize=11;" vertex="1" parent="DFiNrINudKd2fo3YDIdL-101">
          <mxGeometry x="98" width="120" height="22" as="geometry">
            <mxRectangle width="120" height="22" as="alternateBounds" />
          </mxGeometry>
        </mxCell>
        <mxCell id="DFiNrINudKd2fo3YDIdL-105" style="shape=tableRow;horizontal=0;startSize=0;swimlaneHead=0;swimlaneBody=0;fillColor=none;collapsible=0;dropTarget=0;points=[[0,0.5],[1,0.5]];portConstraint=eastwest;top=0;left=0;right=0;bottom=0;" vertex="1" parent="DFiNrINudKd2fo3YDIdL-96">
          <mxGeometry y="69" width="218" height="22" as="geometry" />
        </mxCell>
        <mxCell id="DFiNrINudKd2fo3YDIdL-106" value="string" style="shape=partialRectangle;connectable=0;fillColor=none;top=0;left=0;bottom=0;right=0;align=left;spacingLeft=2;overflow=hidden;fontSize=11;" vertex="1" parent="DFiNrINudKd2fo3YDIdL-105">
          <mxGeometry width="36" height="22" as="geometry">
            <mxRectangle width="36" height="22" as="alternateBounds" />
          </mxGeometry>
        </mxCell>
        <mxCell id="DFiNrINudKd2fo3YDIdL-107" value="Username" style="shape=partialRectangle;connectable=0;fillColor=none;top=0;left=0;bottom=0;right=0;align=left;spacingLeft=2;overflow=hidden;fontSize=11;" vertex="1" parent="DFiNrINudKd2fo3YDIdL-105">
          <mxGeometry x="36" width="62" height="22" as="geometry">
            <mxRectangle width="62" height="22" as="alternateBounds" />
          </mxGeometry>
        </mxCell>
        <mxCell id="DFiNrINudKd2fo3YDIdL-108" value="" style="shape=partialRectangle;connectable=0;fillColor=none;top=0;left=0;bottom=0;right=0;align=left;spacingLeft=2;overflow=hidden;fontSize=11;" vertex="1" parent="DFiNrINudKd2fo3YDIdL-105">
          <mxGeometry x="98" width="120" height="22" as="geometry">
            <mxRectangle width="120" height="22" as="alternateBounds" />
          </mxGeometry>
        </mxCell>
        <mxCell id="DFiNrINudKd2fo3YDIdL-109" style="shape=tableRow;horizontal=0;startSize=0;swimlaneHead=0;swimlaneBody=0;fillColor=none;collapsible=0;dropTarget=0;points=[[0,0.5],[1,0.5]];portConstraint=eastwest;top=0;left=0;right=0;bottom=0;" vertex="1" parent="DFiNrINudKd2fo3YDIdL-96">
          <mxGeometry y="91" width="218" height="22" as="geometry" />
        </mxCell>
        <mxCell id="DFiNrINudKd2fo3YDIdL-110" value="string" style="shape=partialRectangle;connectable=0;fillColor=none;top=0;left=0;bottom=0;right=0;align=left;spacingLeft=2;overflow=hidden;fontSize=11;" vertex="1" parent="DFiNrINudKd2fo3YDIdL-109">
          <mxGeometry width="36" height="22" as="geometry">
            <mxRectangle width="36" height="22" as="alternateBounds" />
          </mxGeometry>
        </mxCell>
        <mxCell id="DFiNrINudKd2fo3YDIdL-111" value="Email" style="shape=partialRectangle;connectable=0;fillColor=none;top=0;left=0;bottom=0;right=0;align=left;spacingLeft=2;overflow=hidden;fontSize=11;" vertex="1" parent="DFiNrINudKd2fo3YDIdL-109">
          <mxGeometry x="36" width="62" height="22" as="geometry">
            <mxRectangle width="62" height="22" as="alternateBounds" />
          </mxGeometry>
        </mxCell>
        <mxCell id="DFiNrINudKd2fo3YDIdL-112" value="" style="shape=partialRectangle;connectable=0;fillColor=none;top=0;left=0;bottom=0;right=0;align=left;spacingLeft=2;overflow=hidden;fontSize=11;" vertex="1" parent="DFiNrINudKd2fo3YDIdL-109">
          <mxGeometry x="98" width="120" height="22" as="geometry">
            <mxRectangle width="120" height="22" as="alternateBounds" />
          </mxGeometry>
        </mxCell>
        <mxCell id="DFiNrINudKd2fo3YDIdL-113" style="shape=tableRow;horizontal=0;startSize=0;swimlaneHead=0;swimlaneBody=0;fillColor=none;collapsible=0;dropTarget=0;points=[[0,0.5],[1,0.5]];portConstraint=eastwest;top=0;left=0;right=0;bottom=0;" vertex="1" parent="DFiNrINudKd2fo3YDIdL-96">
          <mxGeometry y="113" width="218" height="22" as="geometry" />
        </mxCell>
        <mxCell id="DFiNrINudKd2fo3YDIdL-114" value="string" style="shape=partialRectangle;connectable=0;fillColor=none;top=0;left=0;bottom=0;right=0;align=left;spacingLeft=2;overflow=hidden;fontSize=11;" vertex="1" parent="DFiNrINudKd2fo3YDIdL-113">
          <mxGeometry width="36" height="22" as="geometry">
            <mxRectangle width="36" height="22" as="alternateBounds" />
          </mxGeometry>
        </mxCell>
        <mxCell id="DFiNrINudKd2fo3YDIdL-115" value="Password" style="shape=partialRectangle;connectable=0;fillColor=none;top=0;left=0;bottom=0;right=0;align=left;spacingLeft=2;overflow=hidden;fontSize=11;" vertex="1" parent="DFiNrINudKd2fo3YDIdL-113">
          <mxGeometry x="36" width="62" height="22" as="geometry">
            <mxRectangle width="62" height="22" as="alternateBounds" />
          </mxGeometry>
        </mxCell>
        <mxCell id="DFiNrINudKd2fo3YDIdL-116" value="" style="shape=partialRectangle;connectable=0;fillColor=none;top=0;left=0;bottom=0;right=0;align=left;spacingLeft=2;overflow=hidden;fontSize=11;" vertex="1" parent="DFiNrINudKd2fo3YDIdL-113">
          <mxGeometry x="98" width="120" height="22" as="geometry">
            <mxRectangle width="120" height="22" as="alternateBounds" />
          </mxGeometry>
        </mxCell>
        <mxCell id="DFiNrINudKd2fo3YDIdL-117" value="EXERCISE-LOG" style="shape=table;startSize=25;container=1;collapsible=0;childLayout=tableLayout;fixedRows=1;rowLines=1;fontStyle=1;align=center;resizeLast=1;" vertex="1" parent="1">
          <mxGeometry x="400" y="818" width="231" height="157" as="geometry" />
        </mxCell>
        <mxCell id="DFiNrINudKd2fo3YDIdL-118" style="shape=tableRow;horizontal=0;startSize=0;swimlaneHead=0;swimlaneBody=0;fillColor=none;collapsible=0;dropTarget=0;points=[[0,0.5],[1,0.5]];portConstraint=eastwest;top=0;left=0;right=0;bottom=0;" vertex="1" parent="DFiNrINudKd2fo3YDIdL-117">
          <mxGeometry y="25" width="231" height="22" as="geometry" />
        </mxCell>
        <mxCell id="DFiNrINudKd2fo3YDIdL-119" value="int" style="shape=partialRectangle;connectable=0;fillColor=none;top=0;left=0;bottom=0;right=0;align=left;spacingLeft=2;overflow=hidden;fontSize=11;" vertex="1" parent="DFiNrINudKd2fo3YDIdL-118">
          <mxGeometry width="36" height="22" as="geometry">
            <mxRectangle width="36" height="22" as="alternateBounds" />
          </mxGeometry>
        </mxCell>
        <mxCell id="DFiNrINudKd2fo3YDIdL-120" value="ExerciseLogID" style="shape=partialRectangle;connectable=0;fillColor=none;top=0;left=0;bottom=0;right=0;align=left;spacingLeft=2;overflow=hidden;fontSize=11;" vertex="1" parent="DFiNrINudKd2fo3YDIdL-118">
          <mxGeometry x="36" width="81" height="22" as="geometry">
            <mxRectangle width="81" height="22" as="alternateBounds" />
          </mxGeometry>
        </mxCell>
        <mxCell id="DFiNrINudKd2fo3YDIdL-121" value="PK" style="shape=partialRectangle;connectable=0;fillColor=none;top=0;left=0;bottom=0;right=0;align=left;spacingLeft=2;overflow=hidden;fontSize=11;" vertex="1" parent="DFiNrINudKd2fo3YDIdL-118">
          <mxGeometry x="117" width="114" height="22" as="geometry">
            <mxRectangle width="114" height="22" as="alternateBounds" />
          </mxGeometry>
        </mxCell>
        <mxCell id="DFiNrINudKd2fo3YDIdL-122" style="shape=tableRow;horizontal=0;startSize=0;swimlaneHead=0;swimlaneBody=0;fillColor=none;collapsible=0;dropTarget=0;points=[[0,0.5],[1,0.5]];portConstraint=eastwest;top=0;left=0;right=0;bottom=0;" vertex="1" parent="DFiNrINudKd2fo3YDIdL-117">
          <mxGeometry y="47" width="231" height="22" as="geometry" />
        </mxCell>
        <mxCell id="DFiNrINudKd2fo3YDIdL-123" value="int" style="shape=partialRectangle;connectable=0;fillColor=none;top=0;left=0;bottom=0;right=0;align=left;spacingLeft=2;overflow=hidden;fontSize=11;" vertex="1" parent="DFiNrINudKd2fo3YDIdL-122">
          <mxGeometry width="36" height="22" as="geometry">
            <mxRectangle width="36" height="22" as="alternateBounds" />
          </mxGeometry>
        </mxCell>
        <mxCell id="DFiNrINudKd2fo3YDIdL-124" value="UserID" style="shape=partialRectangle;connectable=0;fillColor=none;top=0;left=0;bottom=0;right=0;align=left;spacingLeft=2;overflow=hidden;fontSize=11;" vertex="1" parent="DFiNrINudKd2fo3YDIdL-122">
          <mxGeometry x="36" width="81" height="22" as="geometry">
            <mxRectangle width="81" height="22" as="alternateBounds" />
          </mxGeometry>
        </mxCell>
        <mxCell id="DFiNrINudKd2fo3YDIdL-125" value="FK" style="shape=partialRectangle;connectable=0;fillColor=none;top=0;left=0;bottom=0;right=0;align=left;spacingLeft=2;overflow=hidden;fontSize=11;" vertex="1" parent="DFiNrINudKd2fo3YDIdL-122">
          <mxGeometry x="117" width="114" height="22" as="geometry">
            <mxRectangle width="114" height="22" as="alternateBounds" />
          </mxGeometry>
        </mxCell>
        <mxCell id="DFiNrINudKd2fo3YDIdL-134" style="shape=tableRow;horizontal=0;startSize=0;swimlaneHead=0;swimlaneBody=0;fillColor=none;collapsible=0;dropTarget=0;points=[[0,0.5],[1,0.5]];portConstraint=eastwest;top=0;left=0;right=0;bottom=0;" vertex="1" parent="DFiNrINudKd2fo3YDIdL-117">
          <mxGeometry y="69" width="231" height="22" as="geometry" />
        </mxCell>
        <mxCell id="DFiNrINudKd2fo3YDIdL-135" value="int" style="shape=partialRectangle;connectable=0;fillColor=none;top=0;left=0;bottom=0;right=0;align=left;spacingLeft=2;overflow=hidden;fontSize=11;" vertex="1" parent="DFiNrINudKd2fo3YDIdL-134">
          <mxGeometry width="36" height="22" as="geometry">
            <mxRectangle width="36" height="22" as="alternateBounds" />
          </mxGeometry>
        </mxCell>
        <mxCell id="DFiNrINudKd2fo3YDIdL-136" value="IntensityID" style="shape=partialRectangle;connectable=0;fillColor=none;top=0;left=0;bottom=0;right=0;align=left;spacingLeft=2;overflow=hidden;fontSize=11;" vertex="1" parent="DFiNrINudKd2fo3YDIdL-134">
          <mxGeometry x="36" width="81" height="22" as="geometry">
            <mxRectangle width="81" height="22" as="alternateBounds" />
          </mxGeometry>
        </mxCell>
        <mxCell id="DFiNrINudKd2fo3YDIdL-137" value="FK" style="shape=partialRectangle;connectable=0;fillColor=none;top=0;left=0;bottom=0;right=0;align=left;spacingLeft=2;overflow=hidden;fontSize=11;" vertex="1" parent="DFiNrINudKd2fo3YDIdL-134">
          <mxGeometry x="117" width="114" height="22" as="geometry">
            <mxRectangle width="114" height="22" as="alternateBounds" />
          </mxGeometry>
        </mxCell>
        <mxCell id="DFiNrINudKd2fo3YDIdL-126" style="shape=tableRow;horizontal=0;startSize=0;swimlaneHead=0;swimlaneBody=0;fillColor=none;collapsible=0;dropTarget=0;points=[[0,0.5],[1,0.5]];portConstraint=eastwest;top=0;left=0;right=0;bottom=0;" vertex="1" parent="DFiNrINudKd2fo3YDIdL-117">
          <mxGeometry y="91" width="231" height="22" as="geometry" />
        </mxCell>
        <mxCell id="DFiNrINudKd2fo3YDIdL-127" value="int" style="shape=partialRectangle;connectable=0;fillColor=none;top=0;left=0;bottom=0;right=0;align=left;spacingLeft=2;overflow=hidden;fontSize=11;" vertex="1" parent="DFiNrINudKd2fo3YDIdL-126">
          <mxGeometry width="36" height="22" as="geometry">
            <mxRectangle width="36" height="22" as="alternateBounds" />
          </mxGeometry>
        </mxCell>
        <mxCell id="DFiNrINudKd2fo3YDIdL-128" value="ExerciseID" style="shape=partialRectangle;connectable=0;fillColor=none;top=0;left=0;bottom=0;right=0;align=left;spacingLeft=2;overflow=hidden;fontSize=11;" vertex="1" parent="DFiNrINudKd2fo3YDIdL-126">
          <mxGeometry x="36" width="81" height="22" as="geometry">
            <mxRectangle width="81" height="22" as="alternateBounds" />
          </mxGeometry>
        </mxCell>
        <mxCell id="DFiNrINudKd2fo3YDIdL-129" value="FK" style="shape=partialRectangle;connectable=0;fillColor=none;top=0;left=0;bottom=0;right=0;align=left;spacingLeft=2;overflow=hidden;fontSize=11;" vertex="1" parent="DFiNrINudKd2fo3YDIdL-126">
          <mxGeometry x="117" width="114" height="22" as="geometry">
            <mxRectangle width="114" height="22" as="alternateBounds" />
          </mxGeometry>
        </mxCell>
        <mxCell id="DFiNrINudKd2fo3YDIdL-130" style="shape=tableRow;horizontal=0;startSize=0;swimlaneHead=0;swimlaneBody=0;fillColor=none;collapsible=0;dropTarget=0;points=[[0,0.5],[1,0.5]];portConstraint=eastwest;top=0;left=0;right=0;bottom=0;" vertex="1" parent="DFiNrINudKd2fo3YDIdL-117">
          <mxGeometry y="113" width="231" height="22" as="geometry" />
        </mxCell>
        <mxCell id="DFiNrINudKd2fo3YDIdL-131" value="int" style="shape=partialRectangle;connectable=0;fillColor=none;top=0;left=0;bottom=0;right=0;align=left;spacingLeft=2;overflow=hidden;fontSize=11;" vertex="1" parent="DFiNrINudKd2fo3YDIdL-130">
          <mxGeometry width="36" height="22" as="geometry">
            <mxRectangle width="36" height="22" as="alternateBounds" />
          </mxGeometry>
        </mxCell>
        <mxCell id="DFiNrINudKd2fo3YDIdL-132" value="Duration" style="shape=partialRectangle;connectable=0;fillColor=none;top=0;left=0;bottom=0;right=0;align=left;spacingLeft=2;overflow=hidden;fontSize=11;" vertex="1" parent="DFiNrINudKd2fo3YDIdL-130">
          <mxGeometry x="36" width="81" height="22" as="geometry">
            <mxRectangle width="81" height="22" as="alternateBounds" />
          </mxGeometry>
        </mxCell>
        <mxCell id="DFiNrINudKd2fo3YDIdL-133" value="In minutes" style="shape=partialRectangle;connectable=0;fillColor=none;top=0;left=0;bottom=0;right=0;align=left;spacingLeft=2;overflow=hidden;fontSize=11;" vertex="1" parent="DFiNrINudKd2fo3YDIdL-130">
          <mxGeometry x="117" width="114" height="22" as="geometry">
            <mxRectangle width="114" height="22" as="alternateBounds" />
          </mxGeometry>
        </mxCell>
        <mxCell id="DFiNrINudKd2fo3YDIdL-138" style="shape=tableRow;horizontal=0;startSize=0;swimlaneHead=0;swimlaneBody=0;fillColor=none;collapsible=0;dropTarget=0;points=[[0,0.5],[1,0.5]];portConstraint=eastwest;top=0;left=0;right=0;bottom=0;" vertex="1" parent="DFiNrINudKd2fo3YDIdL-117">
          <mxGeometry y="135" width="231" height="22" as="geometry" />
        </mxCell>
        <mxCell id="DFiNrINudKd2fo3YDIdL-139" value="date" style="shape=partialRectangle;connectable=0;fillColor=none;top=0;left=0;bottom=0;right=0;align=left;spacingLeft=2;overflow=hidden;fontSize=11;" vertex="1" parent="DFiNrINudKd2fo3YDIdL-138">
          <mxGeometry width="36" height="22" as="geometry">
            <mxRectangle width="36" height="22" as="alternateBounds" />
          </mxGeometry>
        </mxCell>
        <mxCell id="DFiNrINudKd2fo3YDIdL-140" value="Date" style="shape=partialRectangle;connectable=0;fillColor=none;top=0;left=0;bottom=0;right=0;align=left;spacingLeft=2;overflow=hidden;fontSize=11;" vertex="1" parent="DFiNrINudKd2fo3YDIdL-138">
          <mxGeometry x="36" width="81" height="22" as="geometry">
            <mxRectangle width="81" height="22" as="alternateBounds" />
          </mxGeometry>
        </mxCell>
        <mxCell id="DFiNrINudKd2fo3YDIdL-141" value="" style="shape=partialRectangle;connectable=0;fillColor=none;top=0;left=0;bottom=0;right=0;align=left;spacingLeft=2;overflow=hidden;fontSize=11;" vertex="1" parent="DFiNrINudKd2fo3YDIdL-138">
          <mxGeometry x="117" width="114" height="22" as="geometry">
            <mxRectangle width="114" height="22" as="alternateBounds" />
          </mxGeometry>
        </mxCell>
        <mxCell id="DFiNrINudKd2fo3YDIdL-142" value="NUTRITION-LOG" style="shape=table;startSize=25;container=1;collapsible=0;childLayout=tableLayout;fixedRows=1;rowLines=1;fontStyle=1;align=center;resizeLast=1;" vertex="1" parent="1">
          <mxGeometry x="408" y="1020" width="223" height="135" as="geometry" />
        </mxCell>
        <mxCell id="DFiNrINudKd2fo3YDIdL-143" style="shape=tableRow;horizontal=0;startSize=0;swimlaneHead=0;swimlaneBody=0;fillColor=none;collapsible=0;dropTarget=0;points=[[0,0.5],[1,0.5]];portConstraint=eastwest;top=0;left=0;right=0;bottom=0;" vertex="1" parent="DFiNrINudKd2fo3YDIdL-142">
          <mxGeometry y="25" width="223" height="22" as="geometry" />
        </mxCell>
        <mxCell id="DFiNrINudKd2fo3YDIdL-144" value="int" style="shape=partialRectangle;connectable=0;fillColor=none;top=0;left=0;bottom=0;right=0;align=left;spacingLeft=2;overflow=hidden;fontSize=11;" vertex="1" parent="DFiNrINudKd2fo3YDIdL-143">
          <mxGeometry width="36" height="22" as="geometry">
            <mxRectangle width="36" height="22" as="alternateBounds" />
          </mxGeometry>
        </mxCell>
        <mxCell id="DFiNrINudKd2fo3YDIdL-145" value="NutritionLogID" style="shape=partialRectangle;connectable=0;fillColor=none;top=0;left=0;bottom=0;right=0;align=left;spacingLeft=2;overflow=hidden;fontSize=11;" vertex="1" parent="DFiNrINudKd2fo3YDIdL-143">
          <mxGeometry x="36" width="87" height="22" as="geometry">
            <mxRectangle width="87" height="22" as="alternateBounds" />
          </mxGeometry>
        </mxCell>
        <mxCell id="DFiNrINudKd2fo3YDIdL-146" value="PK" style="shape=partialRectangle;connectable=0;fillColor=none;top=0;left=0;bottom=0;right=0;align=left;spacingLeft=2;overflow=hidden;fontSize=11;" vertex="1" parent="DFiNrINudKd2fo3YDIdL-143">
          <mxGeometry x="123" width="100" height="22" as="geometry">
            <mxRectangle width="100" height="22" as="alternateBounds" />
          </mxGeometry>
        </mxCell>
        <mxCell id="DFiNrINudKd2fo3YDIdL-147" style="shape=tableRow;horizontal=0;startSize=0;swimlaneHead=0;swimlaneBody=0;fillColor=none;collapsible=0;dropTarget=0;points=[[0,0.5],[1,0.5]];portConstraint=eastwest;top=0;left=0;right=0;bottom=0;" vertex="1" parent="DFiNrINudKd2fo3YDIdL-142">
          <mxGeometry y="47" width="223" height="22" as="geometry" />
        </mxCell>
        <mxCell id="DFiNrINudKd2fo3YDIdL-148" value="int" style="shape=partialRectangle;connectable=0;fillColor=none;top=0;left=0;bottom=0;right=0;align=left;spacingLeft=2;overflow=hidden;fontSize=11;" vertex="1" parent="DFiNrINudKd2fo3YDIdL-147">
          <mxGeometry width="36" height="22" as="geometry">
            <mxRectangle width="36" height="22" as="alternateBounds" />
          </mxGeometry>
        </mxCell>
        <mxCell id="DFiNrINudKd2fo3YDIdL-149" value="UserID" style="shape=partialRectangle;connectable=0;fillColor=none;top=0;left=0;bottom=0;right=0;align=left;spacingLeft=2;overflow=hidden;fontSize=11;" vertex="1" parent="DFiNrINudKd2fo3YDIdL-147">
          <mxGeometry x="36" width="87" height="22" as="geometry">
            <mxRectangle width="87" height="22" as="alternateBounds" />
          </mxGeometry>
        </mxCell>
        <mxCell id="DFiNrINudKd2fo3YDIdL-150" value="FK" style="shape=partialRectangle;connectable=0;fillColor=none;top=0;left=0;bottom=0;right=0;align=left;spacingLeft=2;overflow=hidden;fontSize=11;" vertex="1" parent="DFiNrINudKd2fo3YDIdL-147">
          <mxGeometry x="123" width="100" height="22" as="geometry">
            <mxRectangle width="100" height="22" as="alternateBounds" />
          </mxGeometry>
        </mxCell>
        <mxCell id="DFiNrINudKd2fo3YDIdL-151" style="shape=tableRow;horizontal=0;startSize=0;swimlaneHead=0;swimlaneBody=0;fillColor=none;collapsible=0;dropTarget=0;points=[[0,0.5],[1,0.5]];portConstraint=eastwest;top=0;left=0;right=0;bottom=0;" vertex="1" parent="DFiNrINudKd2fo3YDIdL-142">
          <mxGeometry y="69" width="223" height="22" as="geometry" />
        </mxCell>
        <mxCell id="DFiNrINudKd2fo3YDIdL-152" value="int" style="shape=partialRectangle;connectable=0;fillColor=none;top=0;left=0;bottom=0;right=0;align=left;spacingLeft=2;overflow=hidden;fontSize=11;" vertex="1" parent="DFiNrINudKd2fo3YDIdL-151">
          <mxGeometry width="36" height="22" as="geometry">
            <mxRectangle width="36" height="22" as="alternateBounds" />
          </mxGeometry>
        </mxCell>
        <mxCell id="DFiNrINudKd2fo3YDIdL-153" value="FoodID" style="shape=partialRectangle;connectable=0;fillColor=none;top=0;left=0;bottom=0;right=0;align=left;spacingLeft=2;overflow=hidden;fontSize=11;" vertex="1" parent="DFiNrINudKd2fo3YDIdL-151">
          <mxGeometry x="36" width="87" height="22" as="geometry">
            <mxRectangle width="87" height="22" as="alternateBounds" />
          </mxGeometry>
        </mxCell>
        <mxCell id="DFiNrINudKd2fo3YDIdL-154" value="FK" style="shape=partialRectangle;connectable=0;fillColor=none;top=0;left=0;bottom=0;right=0;align=left;spacingLeft=2;overflow=hidden;fontSize=11;" vertex="1" parent="DFiNrINudKd2fo3YDIdL-151">
          <mxGeometry x="123" width="100" height="22" as="geometry">
            <mxRectangle width="100" height="22" as="alternateBounds" />
          </mxGeometry>
        </mxCell>
        <mxCell id="DFiNrINudKd2fo3YDIdL-155" style="shape=tableRow;horizontal=0;startSize=0;swimlaneHead=0;swimlaneBody=0;fillColor=none;collapsible=0;dropTarget=0;points=[[0,0.5],[1,0.5]];portConstraint=eastwest;top=0;left=0;right=0;bottom=0;" vertex="1" parent="DFiNrINudKd2fo3YDIdL-142">
          <mxGeometry y="91" width="223" height="22" as="geometry" />
        </mxCell>
        <mxCell id="DFiNrINudKd2fo3YDIdL-156" value="float" style="shape=partialRectangle;connectable=0;fillColor=none;top=0;left=0;bottom=0;right=0;align=left;spacingLeft=2;overflow=hidden;fontSize=11;" vertex="1" parent="DFiNrINudKd2fo3YDIdL-155">
          <mxGeometry width="36" height="22" as="geometry">
            <mxRectangle width="36" height="22" as="alternateBounds" />
          </mxGeometry>
        </mxCell>
        <mxCell id="DFiNrINudKd2fo3YDIdL-157" value="Quantity" style="shape=partialRectangle;connectable=0;fillColor=none;top=0;left=0;bottom=0;right=0;align=left;spacingLeft=2;overflow=hidden;fontSize=11;" vertex="1" parent="DFiNrINudKd2fo3YDIdL-155">
          <mxGeometry x="36" width="87" height="22" as="geometry">
            <mxRectangle width="87" height="22" as="alternateBounds" />
          </mxGeometry>
        </mxCell>
        <mxCell id="DFiNrINudKd2fo3YDIdL-158" value="" style="shape=partialRectangle;connectable=0;fillColor=none;top=0;left=0;bottom=0;right=0;align=left;spacingLeft=2;overflow=hidden;fontSize=11;" vertex="1" parent="DFiNrINudKd2fo3YDIdL-155">
          <mxGeometry x="123" width="100" height="22" as="geometry">
            <mxRectangle width="100" height="22" as="alternateBounds" />
          </mxGeometry>
        </mxCell>
        <mxCell id="DFiNrINudKd2fo3YDIdL-163" style="shape=tableRow;horizontal=0;startSize=0;swimlaneHead=0;swimlaneBody=0;fillColor=none;collapsible=0;dropTarget=0;points=[[0,0.5],[1,0.5]];portConstraint=eastwest;top=0;left=0;right=0;bottom=0;" vertex="1" parent="DFiNrINudKd2fo3YDIdL-142">
          <mxGeometry y="113" width="223" height="22" as="geometry" />
        </mxCell>
        <mxCell id="DFiNrINudKd2fo3YDIdL-164" value="date" style="shape=partialRectangle;connectable=0;fillColor=none;top=0;left=0;bottom=0;right=0;align=left;spacingLeft=2;overflow=hidden;fontSize=11;" vertex="1" parent="DFiNrINudKd2fo3YDIdL-163">
          <mxGeometry width="36" height="22" as="geometry">
            <mxRectangle width="36" height="22" as="alternateBounds" />
          </mxGeometry>
        </mxCell>
        <mxCell id="DFiNrINudKd2fo3YDIdL-165" value="Date" style="shape=partialRectangle;connectable=0;fillColor=none;top=0;left=0;bottom=0;right=0;align=left;spacingLeft=2;overflow=hidden;fontSize=11;" vertex="1" parent="DFiNrINudKd2fo3YDIdL-163">
          <mxGeometry x="36" width="87" height="22" as="geometry">
            <mxRectangle width="87" height="22" as="alternateBounds" />
          </mxGeometry>
        </mxCell>
        <mxCell id="DFiNrINudKd2fo3YDIdL-166" value="" style="shape=partialRectangle;connectable=0;fillColor=none;top=0;left=0;bottom=0;right=0;align=left;spacingLeft=2;overflow=hidden;fontSize=11;" vertex="1" parent="DFiNrINudKd2fo3YDIdL-163">
          <mxGeometry x="123" width="100" height="22" as="geometry">
            <mxRectangle width="100" height="22" as="alternateBounds" />
          </mxGeometry>
        </mxCell>
        <mxCell id="DFiNrINudKd2fo3YDIdL-167" value="GOAL" style="shape=table;startSize=25;container=1;collapsible=0;childLayout=tableLayout;fixedRows=1;rowLines=1;fontStyle=1;align=center;resizeLast=1;" vertex="1" parent="1">
          <mxGeometry x="1190" y="1130" width="290" height="135" as="geometry" />
        </mxCell>
        <mxCell id="DFiNrINudKd2fo3YDIdL-168" style="shape=tableRow;horizontal=0;startSize=0;swimlaneHead=0;swimlaneBody=0;fillColor=none;collapsible=0;dropTarget=0;points=[[0,0.5],[1,0.5]];portConstraint=eastwest;top=0;left=0;right=0;bottom=0;" vertex="1" parent="DFiNrINudKd2fo3YDIdL-167">
          <mxGeometry y="25" width="290" height="22" as="geometry" />
        </mxCell>
        <mxCell id="DFiNrINudKd2fo3YDIdL-169" value="int" style="shape=partialRectangle;connectable=0;fillColor=none;top=0;left=0;bottom=0;right=0;align=left;spacingLeft=2;overflow=hidden;fontSize=11;" vertex="1" parent="DFiNrINudKd2fo3YDIdL-168">
          <mxGeometry width="36" height="22" as="geometry">
            <mxRectangle width="36" height="22" as="alternateBounds" />
          </mxGeometry>
        </mxCell>
        <mxCell id="DFiNrINudKd2fo3YDIdL-170" value="GoalID" style="shape=partialRectangle;connectable=0;fillColor=none;top=0;left=0;bottom=0;right=0;align=left;spacingLeft=2;overflow=hidden;fontSize=11;" vertex="1" parent="DFiNrINudKd2fo3YDIdL-168">
          <mxGeometry x="36" width="64" height="22" as="geometry">
            <mxRectangle width="64" height="22" as="alternateBounds" />
          </mxGeometry>
        </mxCell>
        <mxCell id="DFiNrINudKd2fo3YDIdL-171" value="PK" style="shape=partialRectangle;connectable=0;fillColor=none;top=0;left=0;bottom=0;right=0;align=left;spacingLeft=2;overflow=hidden;fontSize=11;" vertex="1" parent="DFiNrINudKd2fo3YDIdL-168">
          <mxGeometry x="100" width="190" height="22" as="geometry">
            <mxRectangle width="190" height="22" as="alternateBounds" />
          </mxGeometry>
        </mxCell>
        <mxCell id="DFiNrINudKd2fo3YDIdL-176" style="shape=tableRow;horizontal=0;startSize=0;swimlaneHead=0;swimlaneBody=0;fillColor=none;collapsible=0;dropTarget=0;points=[[0,0.5],[1,0.5]];portConstraint=eastwest;top=0;left=0;right=0;bottom=0;" vertex="1" parent="DFiNrINudKd2fo3YDIdL-167">
          <mxGeometry y="47" width="290" height="22" as="geometry" />
        </mxCell>
        <mxCell id="DFiNrINudKd2fo3YDIdL-177" value="string" style="shape=partialRectangle;connectable=0;fillColor=none;top=0;left=0;bottom=0;right=0;align=left;spacingLeft=2;overflow=hidden;fontSize=11;" vertex="1" parent="DFiNrINudKd2fo3YDIdL-176">
          <mxGeometry width="36" height="22" as="geometry">
            <mxRectangle width="36" height="22" as="alternateBounds" />
          </mxGeometry>
        </mxCell>
        <mxCell id="DFiNrINudKd2fo3YDIdL-178" value="GoalType" style="shape=partialRectangle;connectable=0;fillColor=none;top=0;left=0;bottom=0;right=0;align=left;spacingLeft=2;overflow=hidden;fontSize=11;" vertex="1" parent="DFiNrINudKd2fo3YDIdL-176">
          <mxGeometry x="36" width="64" height="22" as="geometry">
            <mxRectangle width="64" height="22" as="alternateBounds" />
          </mxGeometry>
        </mxCell>
        <mxCell id="DFiNrINudKd2fo3YDIdL-179" value="Type of goal (Exercise/Nutrition)" style="shape=partialRectangle;connectable=0;fillColor=none;top=0;left=0;bottom=0;right=0;align=left;spacingLeft=2;overflow=hidden;fontSize=11;" vertex="1" parent="DFiNrINudKd2fo3YDIdL-176">
          <mxGeometry x="100" width="190" height="22" as="geometry">
            <mxRectangle width="190" height="22" as="alternateBounds" />
          </mxGeometry>
        </mxCell>
        <mxCell id="DFiNrINudKd2fo3YDIdL-180" style="shape=tableRow;horizontal=0;startSize=0;swimlaneHead=0;swimlaneBody=0;fillColor=none;collapsible=0;dropTarget=0;points=[[0,0.5],[1,0.5]];portConstraint=eastwest;top=0;left=0;right=0;bottom=0;" vertex="1" parent="DFiNrINudKd2fo3YDIdL-167">
          <mxGeometry y="69" width="290" height="22" as="geometry" />
        </mxCell>
        <mxCell id="DFiNrINudKd2fo3YDIdL-181" value="string" style="shape=partialRectangle;connectable=0;fillColor=none;top=0;left=0;bottom=0;right=0;align=left;spacingLeft=2;overflow=hidden;fontSize=11;" vertex="1" parent="DFiNrINudKd2fo3YDIdL-180">
          <mxGeometry width="36" height="22" as="geometry">
            <mxRectangle width="36" height="22" as="alternateBounds" />
          </mxGeometry>
        </mxCell>
        <mxCell id="DFiNrINudKd2fo3YDIdL-182" value="Target" style="shape=partialRectangle;connectable=0;fillColor=none;top=0;left=0;bottom=0;right=0;align=left;spacingLeft=2;overflow=hidden;fontSize=11;" vertex="1" parent="DFiNrINudKd2fo3YDIdL-180">
          <mxGeometry x="36" width="64" height="22" as="geometry">
            <mxRectangle width="64" height="22" as="alternateBounds" />
          </mxGeometry>
        </mxCell>
        <mxCell id="DFiNrINudKd2fo3YDIdL-183" value="Target for the goal" style="shape=partialRectangle;connectable=0;fillColor=none;top=0;left=0;bottom=0;right=0;align=left;spacingLeft=2;overflow=hidden;fontSize=11;" vertex="1" parent="DFiNrINudKd2fo3YDIdL-180">
          <mxGeometry x="100" width="190" height="22" as="geometry">
            <mxRectangle width="190" height="22" as="alternateBounds" />
          </mxGeometry>
        </mxCell>
        <mxCell id="DFiNrINudKd2fo3YDIdL-394" style="shape=tableRow;horizontal=0;startSize=0;swimlaneHead=0;swimlaneBody=0;fillColor=none;collapsible=0;dropTarget=0;points=[[0,0.5],[1,0.5]];portConstraint=eastwest;top=0;left=0;right=0;bottom=0;" vertex="1" parent="DFiNrINudKd2fo3YDIdL-167">
          <mxGeometry y="91" width="290" height="22" as="geometry" />
        </mxCell>
        <mxCell id="DFiNrINudKd2fo3YDIdL-395" value="string" style="shape=partialRectangle;connectable=0;fillColor=none;top=0;left=0;bottom=0;right=0;align=left;spacingLeft=2;overflow=hidden;fontSize=11;" vertex="1" parent="DFiNrINudKd2fo3YDIdL-394">
          <mxGeometry width="36" height="22" as="geometry">
            <mxRectangle width="36" height="22" as="alternateBounds" />
          </mxGeometry>
        </mxCell>
        <mxCell id="DFiNrINudKd2fo3YDIdL-396" value="Description" style="shape=partialRectangle;connectable=0;fillColor=none;top=0;left=0;bottom=0;right=0;align=left;spacingLeft=2;overflow=hidden;fontSize=11;" vertex="1" parent="DFiNrINudKd2fo3YDIdL-394">
          <mxGeometry x="36" width="64" height="22" as="geometry">
            <mxRectangle width="64" height="22" as="alternateBounds" />
          </mxGeometry>
        </mxCell>
        <mxCell id="DFiNrINudKd2fo3YDIdL-397" value="" style="shape=partialRectangle;connectable=0;fillColor=none;top=0;left=0;bottom=0;right=0;align=left;spacingLeft=2;overflow=hidden;fontSize=11;" vertex="1" parent="DFiNrINudKd2fo3YDIdL-394">
          <mxGeometry x="100" width="190" height="22" as="geometry">
            <mxRectangle width="190" height="22" as="alternateBounds" />
          </mxGeometry>
        </mxCell>
        <mxCell id="DFiNrINudKd2fo3YDIdL-398" style="shape=tableRow;horizontal=0;startSize=0;swimlaneHead=0;swimlaneBody=0;fillColor=none;collapsible=0;dropTarget=0;points=[[0,0.5],[1,0.5]];portConstraint=eastwest;top=0;left=0;right=0;bottom=0;" vertex="1" parent="DFiNrINudKd2fo3YDIdL-167">
          <mxGeometry y="113" width="290" height="22" as="geometry" />
        </mxCell>
        <mxCell id="DFiNrINudKd2fo3YDIdL-399" value="string" style="shape=partialRectangle;connectable=0;fillColor=none;top=0;left=0;bottom=0;right=0;align=left;spacingLeft=2;overflow=hidden;fontSize=11;" vertex="1" parent="DFiNrINudKd2fo3YDIdL-398">
          <mxGeometry width="36" height="22" as="geometry">
            <mxRectangle width="36" height="22" as="alternateBounds" />
          </mxGeometry>
        </mxCell>
        <mxCell id="DFiNrINudKd2fo3YDIdL-400" value="Difficulty" style="shape=partialRectangle;connectable=0;fillColor=none;top=0;left=0;bottom=0;right=0;align=left;spacingLeft=2;overflow=hidden;fontSize=11;" vertex="1" parent="DFiNrINudKd2fo3YDIdL-398">
          <mxGeometry x="36" width="64" height="22" as="geometry">
            <mxRectangle width="64" height="22" as="alternateBounds" />
          </mxGeometry>
        </mxCell>
        <mxCell id="DFiNrINudKd2fo3YDIdL-401" value="Easy, Medium, Hard" style="shape=partialRectangle;connectable=0;fillColor=none;top=0;left=0;bottom=0;right=0;align=left;spacingLeft=2;overflow=hidden;fontSize=11;" vertex="1" parent="DFiNrINudKd2fo3YDIdL-398">
          <mxGeometry x="100" width="190" height="22" as="geometry">
            <mxRectangle width="190" height="22" as="alternateBounds" />
          </mxGeometry>
        </mxCell>
        <mxCell id="DFiNrINudKd2fo3YDIdL-188" value="LOGIN" style="shape=table;startSize=25;container=1;collapsible=0;childLayout=tableLayout;fixedRows=1;rowLines=1;fontStyle=1;align=center;resizeLast=1;" vertex="1" parent="1">
          <mxGeometry x="1180" y="841.5" width="342" height="69" as="geometry" />
        </mxCell>
        <mxCell id="DFiNrINudKd2fo3YDIdL-189" style="shape=tableRow;horizontal=0;startSize=0;swimlaneHead=0;swimlaneBody=0;fillColor=none;collapsible=0;dropTarget=0;points=[[0,0.5],[1,0.5]];portConstraint=eastwest;top=0;left=0;right=0;bottom=0;" vertex="1" parent="DFiNrINudKd2fo3YDIdL-188">
          <mxGeometry y="25" width="342" height="22" as="geometry" />
        </mxCell>
        <mxCell id="DFiNrINudKd2fo3YDIdL-190" value="string" style="shape=partialRectangle;connectable=0;fillColor=none;top=0;left=0;bottom=0;right=0;align=left;spacingLeft=2;overflow=hidden;fontSize=11;" vertex="1" parent="DFiNrINudKd2fo3YDIdL-189">
          <mxGeometry width="36" height="22" as="geometry">
            <mxRectangle width="36" height="22" as="alternateBounds" />
          </mxGeometry>
        </mxCell>
        <mxCell id="DFiNrINudKd2fo3YDIdL-191" value="username" style="shape=partialRectangle;connectable=0;fillColor=none;top=0;left=0;bottom=0;right=0;align=left;spacingLeft=2;overflow=hidden;fontSize=11;" vertex="1" parent="DFiNrINudKd2fo3YDIdL-189">
          <mxGeometry x="36" width="66" height="22" as="geometry">
            <mxRectangle width="66" height="22" as="alternateBounds" />
          </mxGeometry>
        </mxCell>
        <mxCell id="DFiNrINudKd2fo3YDIdL-192" value="FK" style="shape=partialRectangle;connectable=0;fillColor=none;top=0;left=0;bottom=0;right=0;align=left;spacingLeft=2;overflow=hidden;fontSize=11;" vertex="1" parent="DFiNrINudKd2fo3YDIdL-189">
          <mxGeometry x="102" width="240" height="22" as="geometry">
            <mxRectangle width="240" height="22" as="alternateBounds" />
          </mxGeometry>
        </mxCell>
        <mxCell id="DFiNrINudKd2fo3YDIdL-193" style="shape=tableRow;horizontal=0;startSize=0;swimlaneHead=0;swimlaneBody=0;fillColor=none;collapsible=0;dropTarget=0;points=[[0,0.5],[1,0.5]];portConstraint=eastwest;top=0;left=0;right=0;bottom=0;" vertex="1" parent="DFiNrINudKd2fo3YDIdL-188">
          <mxGeometry y="47" width="342" height="22" as="geometry" />
        </mxCell>
        <mxCell id="DFiNrINudKd2fo3YDIdL-194" value="string" style="shape=partialRectangle;connectable=0;fillColor=none;top=0;left=0;bottom=0;right=0;align=left;spacingLeft=2;overflow=hidden;fontSize=11;" vertex="1" parent="DFiNrINudKd2fo3YDIdL-193">
          <mxGeometry width="36" height="22" as="geometry">
            <mxRectangle width="36" height="22" as="alternateBounds" />
          </mxGeometry>
        </mxCell>
        <mxCell id="DFiNrINudKd2fo3YDIdL-195" value="password" style="shape=partialRectangle;connectable=0;fillColor=none;top=0;left=0;bottom=0;right=0;align=left;spacingLeft=2;overflow=hidden;fontSize=11;" vertex="1" parent="DFiNrINudKd2fo3YDIdL-193">
          <mxGeometry x="36" width="66" height="22" as="geometry">
            <mxRectangle width="66" height="22" as="alternateBounds" />
          </mxGeometry>
        </mxCell>
        <mxCell id="DFiNrINudKd2fo3YDIdL-196" value="FK" style="shape=partialRectangle;connectable=0;fillColor=none;top=0;left=0;bottom=0;right=0;align=left;spacingLeft=2;overflow=hidden;fontSize=11;" vertex="1" parent="DFiNrINudKd2fo3YDIdL-193">
          <mxGeometry x="102" width="240" height="22" as="geometry">
            <mxRectangle width="240" height="22" as="alternateBounds" />
          </mxGeometry>
        </mxCell>
        <mxCell id="DFiNrINudKd2fo3YDIdL-231" value="logs" style="startArrow=ERmandOne;startSize=10;;endArrow=ERmany;endSize=10;;exitX=0;exitY=0.5;entryX=1;entryY=0.5;rounded=0;entryDx=0;entryDy=0;exitDx=0;exitDy=0;" edge="1" parent="1" source="DFiNrINudKd2fo3YDIdL-97" target="DFiNrINudKd2fo3YDIdL-122">
          <mxGeometry relative="1" as="geometry" />
        </mxCell>
        <mxCell id="DFiNrINudKd2fo3YDIdL-232" value="logs" style="startArrow=ERmandOne;startSize=10;;endArrow=ERmany;endSize=10;;exitX=0;exitY=0.5;entryX=1;entryY=0.5;rounded=0;edgeStyle=orthogonalEdgeStyle;exitDx=0;exitDy=0;entryDx=0;entryDy=0;" edge="1" parent="1" source="DFiNrINudKd2fo3YDIdL-97" target="DFiNrINudKd2fo3YDIdL-143">
          <mxGeometry relative="1" as="geometry">
            <Array as="points">
              <mxPoint x="740" y="876" />
              <mxPoint x="740" y="1056" />
            </Array>
          </mxGeometry>
        </mxCell>
        <mxCell id="DFiNrINudKd2fo3YDIdL-233" value="views progress on" style="startArrow=ERmandOne;startSize=10;;endArrow=ERmany;endSize=10;;exitX=1;exitY=0.5;rounded=0;entryX=0.532;entryY=0.015;entryDx=0;entryDy=0;entryPerimeter=0;exitDx=0;exitDy=0;edgeStyle=orthogonalEdgeStyle;" edge="1" parent="1" source="DFiNrINudKd2fo3YDIdL-97">
          <mxGeometry relative="1" as="geometry">
            <Array as="points">
              <mxPoint x="1040" y="876" />
              <mxPoint x="1040" y="1009" />
              <mxPoint x="916" y="1009" />
            </Array>
            <mxPoint x="915.768" y="1131.695" as="targetPoint" />
          </mxGeometry>
        </mxCell>
        <mxCell id="DFiNrINudKd2fo3YDIdL-234" value="authenticates through" style="startArrow=ERmandOne;startSize=10;;endArrow=ERoneToMany;endSize=10;;exitX=1;exitY=0.5;entryX=0;entryY=0.5;rounded=0;exitDx=0;exitDy=0;entryDx=0;entryDy=0;" edge="1" parent="1" source="DFiNrINudKd2fo3YDIdL-97" target="DFiNrINudKd2fo3YDIdL-189">
          <mxGeometry relative="1" as="geometry" />
        </mxCell>
        <mxCell id="DFiNrINudKd2fo3YDIdL-238" style="shape=connector;rounded=0;orthogonalLoop=1;jettySize=auto;html=1;labelBackgroundColor=default;strokeColor=default;align=center;verticalAlign=middle;fontFamily=Helvetica;fontSize=11;fontColor=default;startArrow=ERmandOne;endArrow=ERoneToMany;startSize=10;endSize=10;exitX=0;exitY=0.5;exitDx=0;exitDy=0;entryX=1;entryY=0.5;entryDx=0;entryDy=0;edgeStyle=orthogonalEdgeStyle;" edge="1" parent="1" source="DFiNrINudKd2fo3YDIdL-168" target="DFiNrINudKd2fo3YDIdL-341">
          <mxGeometry relative="1" as="geometry">
            <mxPoint x="1100" y="1210" as="targetPoint" />
          </mxGeometry>
        </mxCell>
        <mxCell id="DFiNrINudKd2fo3YDIdL-239" value="Food&#xa;" style="shape=table;startSize=25;container=1;collapsible=0;childLayout=tableLayout;fixedRows=1;rowLines=1;fontStyle=1;align=center;resizeLast=1;" vertex="1" parent="1">
          <mxGeometry x="60" y="1064" width="240" height="91" as="geometry" />
        </mxCell>
        <mxCell id="DFiNrINudKd2fo3YDIdL-240" style="shape=tableRow;horizontal=0;startSize=0;swimlaneHead=0;swimlaneBody=0;fillColor=none;collapsible=0;dropTarget=0;points=[[0,0.5],[1,0.5]];portConstraint=eastwest;top=0;left=0;right=0;bottom=0;" vertex="1" parent="DFiNrINudKd2fo3YDIdL-239">
          <mxGeometry y="25" width="240" height="22" as="geometry" />
        </mxCell>
        <mxCell id="DFiNrINudKd2fo3YDIdL-241" value="int" style="shape=partialRectangle;connectable=0;fillColor=none;top=0;left=0;bottom=0;right=0;align=left;spacingLeft=2;overflow=hidden;fontSize=11;" vertex="1" parent="DFiNrINudKd2fo3YDIdL-240">
          <mxGeometry width="36" height="22" as="geometry">
            <mxRectangle width="36" height="22" as="alternateBounds" />
          </mxGeometry>
        </mxCell>
        <mxCell id="DFiNrINudKd2fo3YDIdL-242" value="FoodID" style="shape=partialRectangle;connectable=0;fillColor=none;top=0;left=0;bottom=0;right=0;align=left;spacingLeft=2;overflow=hidden;fontSize=11;" vertex="1" parent="DFiNrINudKd2fo3YDIdL-240">
          <mxGeometry x="36" width="87" height="22" as="geometry">
            <mxRectangle width="87" height="22" as="alternateBounds" />
          </mxGeometry>
        </mxCell>
        <mxCell id="DFiNrINudKd2fo3YDIdL-243" value="PK" style="shape=partialRectangle;connectable=0;fillColor=none;top=0;left=0;bottom=0;right=0;align=left;spacingLeft=2;overflow=hidden;fontSize=11;" vertex="1" parent="DFiNrINudKd2fo3YDIdL-240">
          <mxGeometry x="123" width="117" height="22" as="geometry">
            <mxRectangle width="117" height="22" as="alternateBounds" />
          </mxGeometry>
        </mxCell>
        <mxCell id="DFiNrINudKd2fo3YDIdL-248" style="shape=tableRow;horizontal=0;startSize=0;swimlaneHead=0;swimlaneBody=0;fillColor=none;collapsible=0;dropTarget=0;points=[[0,0.5],[1,0.5]];portConstraint=eastwest;top=0;left=0;right=0;bottom=0;" vertex="1" parent="DFiNrINudKd2fo3YDIdL-239">
          <mxGeometry y="47" width="240" height="22" as="geometry" />
        </mxCell>
        <mxCell id="DFiNrINudKd2fo3YDIdL-249" value="string" style="shape=partialRectangle;connectable=0;fillColor=none;top=0;left=0;bottom=0;right=0;align=left;spacingLeft=2;overflow=hidden;fontSize=11;" vertex="1" parent="DFiNrINudKd2fo3YDIdL-248">
          <mxGeometry width="36" height="22" as="geometry">
            <mxRectangle width="36" height="22" as="alternateBounds" />
          </mxGeometry>
        </mxCell>
        <mxCell id="DFiNrINudKd2fo3YDIdL-250" value="FoodItem" style="shape=partialRectangle;connectable=0;fillColor=none;top=0;left=0;bottom=0;right=0;align=left;spacingLeft=2;overflow=hidden;fontSize=11;" vertex="1" parent="DFiNrINudKd2fo3YDIdL-248">
          <mxGeometry x="36" width="87" height="22" as="geometry">
            <mxRectangle width="87" height="22" as="alternateBounds" />
          </mxGeometry>
        </mxCell>
        <mxCell id="DFiNrINudKd2fo3YDIdL-251" value="" style="shape=partialRectangle;connectable=0;fillColor=none;top=0;left=0;bottom=0;right=0;align=left;spacingLeft=2;overflow=hidden;fontSize=11;" vertex="1" parent="DFiNrINudKd2fo3YDIdL-248">
          <mxGeometry x="123" width="117" height="22" as="geometry">
            <mxRectangle width="117" height="22" as="alternateBounds" />
          </mxGeometry>
        </mxCell>
        <mxCell id="DFiNrINudKd2fo3YDIdL-256" style="shape=tableRow;horizontal=0;startSize=0;swimlaneHead=0;swimlaneBody=0;fillColor=none;collapsible=0;dropTarget=0;points=[[0,0.5],[1,0.5]];portConstraint=eastwest;top=0;left=0;right=0;bottom=0;" vertex="1" parent="DFiNrINudKd2fo3YDIdL-239">
          <mxGeometry y="69" width="240" height="22" as="geometry" />
        </mxCell>
        <mxCell id="DFiNrINudKd2fo3YDIdL-257" value="int" style="shape=partialRectangle;connectable=0;fillColor=none;top=0;left=0;bottom=0;right=0;align=left;spacingLeft=2;overflow=hidden;fontSize=11;" vertex="1" parent="DFiNrINudKd2fo3YDIdL-256">
          <mxGeometry width="36" height="22" as="geometry">
            <mxRectangle width="36" height="22" as="alternateBounds" />
          </mxGeometry>
        </mxCell>
        <mxCell id="DFiNrINudKd2fo3YDIdL-258" value="Calories" style="shape=partialRectangle;connectable=0;fillColor=none;top=0;left=0;bottom=0;right=0;align=left;spacingLeft=2;overflow=hidden;fontSize=11;" vertex="1" parent="DFiNrINudKd2fo3YDIdL-256">
          <mxGeometry x="36" width="87" height="22" as="geometry">
            <mxRectangle width="87" height="22" as="alternateBounds" />
          </mxGeometry>
        </mxCell>
        <mxCell id="DFiNrINudKd2fo3YDIdL-259" value="Per single food item" style="shape=partialRectangle;connectable=0;fillColor=none;top=0;left=0;bottom=0;right=0;align=left;spacingLeft=2;overflow=hidden;fontSize=11;" vertex="1" parent="DFiNrINudKd2fo3YDIdL-256">
          <mxGeometry x="123" width="117" height="22" as="geometry">
            <mxRectangle width="117" height="22" as="alternateBounds" />
          </mxGeometry>
        </mxCell>
        <mxCell id="DFiNrINudKd2fo3YDIdL-301" style="edgeStyle=orthogonalEdgeStyle;shape=connector;rounded=0;orthogonalLoop=1;jettySize=auto;html=1;entryX=0;entryY=0.5;entryDx=0;entryDy=0;labelBackgroundColor=default;strokeColor=default;align=center;verticalAlign=middle;fontFamily=Helvetica;fontSize=11;fontColor=default;startArrow=ERmandOne;endArrow=ERoneToMany;startSize=10;endSize=10;" edge="1" parent="1" source="DFiNrINudKd2fo3YDIdL-240" target="DFiNrINudKd2fo3YDIdL-151">
          <mxGeometry relative="1" as="geometry" />
        </mxCell>
        <mxCell id="DFiNrINudKd2fo3YDIdL-302" value="Exercises" style="shape=table;startSize=25;container=1;collapsible=0;childLayout=tableLayout;fixedRows=1;rowLines=1;fontStyle=1;align=center;resizeLast=1;" vertex="1" parent="1">
          <mxGeometry x="50" y="884" width="260" height="91" as="geometry" />
        </mxCell>
        <mxCell id="DFiNrINudKd2fo3YDIdL-303" style="shape=tableRow;horizontal=0;startSize=0;swimlaneHead=0;swimlaneBody=0;fillColor=none;collapsible=0;dropTarget=0;points=[[0,0.5],[1,0.5]];portConstraint=eastwest;top=0;left=0;right=0;bottom=0;" vertex="1" parent="DFiNrINudKd2fo3YDIdL-302">
          <mxGeometry y="25" width="260" height="22" as="geometry" />
        </mxCell>
        <mxCell id="DFiNrINudKd2fo3YDIdL-304" value="int" style="shape=partialRectangle;connectable=0;fillColor=none;top=0;left=0;bottom=0;right=0;align=left;spacingLeft=2;overflow=hidden;fontSize=11;" vertex="1" parent="DFiNrINudKd2fo3YDIdL-303">
          <mxGeometry width="36" height="22" as="geometry">
            <mxRectangle width="36" height="22" as="alternateBounds" />
          </mxGeometry>
        </mxCell>
        <mxCell id="DFiNrINudKd2fo3YDIdL-305" value="ExerciseID" style="shape=partialRectangle;connectable=0;fillColor=none;top=0;left=0;bottom=0;right=0;align=left;spacingLeft=2;overflow=hidden;fontSize=11;" vertex="1" parent="DFiNrINudKd2fo3YDIdL-303">
          <mxGeometry x="36" width="87" height="22" as="geometry">
            <mxRectangle width="87" height="22" as="alternateBounds" />
          </mxGeometry>
        </mxCell>
        <mxCell id="DFiNrINudKd2fo3YDIdL-306" value="PK" style="shape=partialRectangle;connectable=0;fillColor=none;top=0;left=0;bottom=0;right=0;align=left;spacingLeft=2;overflow=hidden;fontSize=11;" vertex="1" parent="DFiNrINudKd2fo3YDIdL-303">
          <mxGeometry x="123" width="137" height="22" as="geometry">
            <mxRectangle width="137" height="22" as="alternateBounds" />
          </mxGeometry>
        </mxCell>
        <mxCell id="DFiNrINudKd2fo3YDIdL-307" style="shape=tableRow;horizontal=0;startSize=0;swimlaneHead=0;swimlaneBody=0;fillColor=none;collapsible=0;dropTarget=0;points=[[0,0.5],[1,0.5]];portConstraint=eastwest;top=0;left=0;right=0;bottom=0;" vertex="1" parent="DFiNrINudKd2fo3YDIdL-302">
          <mxGeometry y="47" width="260" height="22" as="geometry" />
        </mxCell>
        <mxCell id="DFiNrINudKd2fo3YDIdL-308" value="string" style="shape=partialRectangle;connectable=0;fillColor=none;top=0;left=0;bottom=0;right=0;align=left;spacingLeft=2;overflow=hidden;fontSize=11;" vertex="1" parent="DFiNrINudKd2fo3YDIdL-307">
          <mxGeometry width="36" height="22" as="geometry">
            <mxRectangle width="36" height="22" as="alternateBounds" />
          </mxGeometry>
        </mxCell>
        <mxCell id="DFiNrINudKd2fo3YDIdL-309" value="Exercise" style="shape=partialRectangle;connectable=0;fillColor=none;top=0;left=0;bottom=0;right=0;align=left;spacingLeft=2;overflow=hidden;fontSize=11;" vertex="1" parent="DFiNrINudKd2fo3YDIdL-307">
          <mxGeometry x="36" width="87" height="22" as="geometry">
            <mxRectangle width="87" height="22" as="alternateBounds" />
          </mxGeometry>
        </mxCell>
        <mxCell id="DFiNrINudKd2fo3YDIdL-310" value="" style="shape=partialRectangle;connectable=0;fillColor=none;top=0;left=0;bottom=0;right=0;align=left;spacingLeft=2;overflow=hidden;fontSize=11;" vertex="1" parent="DFiNrINudKd2fo3YDIdL-307">
          <mxGeometry x="123" width="137" height="22" as="geometry">
            <mxRectangle width="137" height="22" as="alternateBounds" />
          </mxGeometry>
        </mxCell>
        <mxCell id="DFiNrINudKd2fo3YDIdL-311" style="shape=tableRow;horizontal=0;startSize=0;swimlaneHead=0;swimlaneBody=0;fillColor=none;collapsible=0;dropTarget=0;points=[[0,0.5],[1,0.5]];portConstraint=eastwest;top=0;left=0;right=0;bottom=0;" vertex="1" parent="DFiNrINudKd2fo3YDIdL-302">
          <mxGeometry y="69" width="260" height="22" as="geometry" />
        </mxCell>
        <mxCell id="DFiNrINudKd2fo3YDIdL-312" value="int" style="shape=partialRectangle;connectable=0;fillColor=none;top=0;left=0;bottom=0;right=0;align=left;spacingLeft=2;overflow=hidden;fontSize=11;" vertex="1" parent="DFiNrINudKd2fo3YDIdL-311">
          <mxGeometry width="36" height="22" as="geometry">
            <mxRectangle width="36" height="22" as="alternateBounds" />
          </mxGeometry>
        </mxCell>
        <mxCell id="DFiNrINudKd2fo3YDIdL-313" value="CaloriesBurnt" style="shape=partialRectangle;connectable=0;fillColor=none;top=0;left=0;bottom=0;right=0;align=left;spacingLeft=2;overflow=hidden;fontSize=11;" vertex="1" parent="DFiNrINudKd2fo3YDIdL-311">
          <mxGeometry x="36" width="87" height="22" as="geometry">
            <mxRectangle width="87" height="22" as="alternateBounds" />
          </mxGeometry>
        </mxCell>
        <mxCell id="DFiNrINudKd2fo3YDIdL-314" value="Calories burnt per minute" style="shape=partialRectangle;connectable=0;fillColor=none;top=0;left=0;bottom=0;right=0;align=left;spacingLeft=2;overflow=hidden;fontSize=11;" vertex="1" parent="DFiNrINudKd2fo3YDIdL-311">
          <mxGeometry x="123" width="137" height="22" as="geometry">
            <mxRectangle width="137" height="22" as="alternateBounds" />
          </mxGeometry>
        </mxCell>
        <mxCell id="DFiNrINudKd2fo3YDIdL-315" value="Intensity" style="shape=table;startSize=25;container=1;collapsible=0;childLayout=tableLayout;fixedRows=1;rowLines=1;fontStyle=1;align=center;resizeLast=1;" vertex="1" parent="1">
          <mxGeometry x="50" y="749" width="280" height="93" as="geometry" />
        </mxCell>
        <mxCell id="DFiNrINudKd2fo3YDIdL-316" style="shape=tableRow;horizontal=0;startSize=0;swimlaneHead=0;swimlaneBody=0;fillColor=none;collapsible=0;dropTarget=0;points=[[0,0.5],[1,0.5]];portConstraint=eastwest;top=0;left=0;right=0;bottom=0;" vertex="1" parent="DFiNrINudKd2fo3YDIdL-315">
          <mxGeometry y="25" width="280" height="22" as="geometry" />
        </mxCell>
        <mxCell id="DFiNrINudKd2fo3YDIdL-317" value="int" style="shape=partialRectangle;connectable=0;fillColor=none;top=0;left=0;bottom=0;right=0;align=left;spacingLeft=2;overflow=hidden;fontSize=11;" vertex="1" parent="DFiNrINudKd2fo3YDIdL-316">
          <mxGeometry width="36" height="22" as="geometry">
            <mxRectangle width="36" height="22" as="alternateBounds" />
          </mxGeometry>
        </mxCell>
        <mxCell id="DFiNrINudKd2fo3YDIdL-318" value="IntensityID" style="shape=partialRectangle;connectable=0;fillColor=none;top=0;left=0;bottom=0;right=0;align=left;spacingLeft=2;overflow=hidden;fontSize=11;" vertex="1" parent="DFiNrINudKd2fo3YDIdL-316">
          <mxGeometry x="36" width="120.00000000000023" height="22" as="geometry">
            <mxRectangle width="120.00000000000023" height="22" as="alternateBounds" />
          </mxGeometry>
        </mxCell>
        <mxCell id="DFiNrINudKd2fo3YDIdL-319" value="PK" style="shape=partialRectangle;connectable=0;fillColor=none;top=0;left=0;bottom=0;right=0;align=left;spacingLeft=2;overflow=hidden;fontSize=11;" vertex="1" parent="DFiNrINudKd2fo3YDIdL-316">
          <mxGeometry x="156.00000000000023" width="123.99999999999977" height="22" as="geometry">
            <mxRectangle width="123.99999999999977" height="22" as="alternateBounds" />
          </mxGeometry>
        </mxCell>
        <mxCell id="DFiNrINudKd2fo3YDIdL-320" style="shape=tableRow;horizontal=0;startSize=0;swimlaneHead=0;swimlaneBody=0;fillColor=none;collapsible=0;dropTarget=0;points=[[0,0.5],[1,0.5]];portConstraint=eastwest;top=0;left=0;right=0;bottom=0;" vertex="1" parent="DFiNrINudKd2fo3YDIdL-315">
          <mxGeometry y="47" width="280" height="24" as="geometry" />
        </mxCell>
        <mxCell id="DFiNrINudKd2fo3YDIdL-321" value="string" style="shape=partialRectangle;connectable=0;fillColor=none;top=0;left=0;bottom=0;right=0;align=left;spacingLeft=2;overflow=hidden;fontSize=11;" vertex="1" parent="DFiNrINudKd2fo3YDIdL-320">
          <mxGeometry width="36" height="24" as="geometry">
            <mxRectangle width="36" height="24" as="alternateBounds" />
          </mxGeometry>
        </mxCell>
        <mxCell id="DFiNrINudKd2fo3YDIdL-322" value="Intensity" style="shape=partialRectangle;connectable=0;fillColor=none;top=0;left=0;bottom=0;right=0;align=left;spacingLeft=2;overflow=hidden;fontSize=11;" vertex="1" parent="DFiNrINudKd2fo3YDIdL-320">
          <mxGeometry x="36" width="120.00000000000023" height="24" as="geometry">
            <mxRectangle width="120.00000000000023" height="24" as="alternateBounds" />
          </mxGeometry>
        </mxCell>
        <mxCell id="DFiNrINudKd2fo3YDIdL-323" value="Low, Medium, Intense" style="shape=partialRectangle;connectable=0;fillColor=none;top=0;left=0;bottom=0;right=0;align=left;spacingLeft=2;overflow=hidden;fontSize=11;" vertex="1" parent="DFiNrINudKd2fo3YDIdL-320">
          <mxGeometry x="156.00000000000023" width="123.99999999999977" height="24" as="geometry">
            <mxRectangle width="123.99999999999977" height="24" as="alternateBounds" />
          </mxGeometry>
        </mxCell>
        <mxCell id="DFiNrINudKd2fo3YDIdL-324" style="shape=tableRow;horizontal=0;startSize=0;swimlaneHead=0;swimlaneBody=0;fillColor=none;collapsible=0;dropTarget=0;points=[[0,0.5],[1,0.5]];portConstraint=eastwest;top=0;left=0;right=0;bottom=0;" vertex="1" parent="DFiNrINudKd2fo3YDIdL-315">
          <mxGeometry y="71" width="280" height="22" as="geometry" />
        </mxCell>
        <mxCell id="DFiNrINudKd2fo3YDIdL-325" value="int" style="shape=partialRectangle;connectable=0;fillColor=none;top=0;left=0;bottom=0;right=0;align=left;spacingLeft=2;overflow=hidden;fontSize=11;" vertex="1" parent="DFiNrINudKd2fo3YDIdL-324">
          <mxGeometry width="36" height="22" as="geometry">
            <mxRectangle width="36" height="22" as="alternateBounds" />
          </mxGeometry>
        </mxCell>
        <mxCell id="DFiNrINudKd2fo3YDIdL-326" value="BurnMultiplier" style="shape=partialRectangle;connectable=0;fillColor=none;top=0;left=0;bottom=0;right=0;align=left;spacingLeft=2;overflow=hidden;fontSize=11;" vertex="1" parent="DFiNrINudKd2fo3YDIdL-324">
          <mxGeometry x="36" width="120.00000000000023" height="22" as="geometry">
            <mxRectangle width="120.00000000000023" height="22" as="alternateBounds" />
          </mxGeometry>
        </mxCell>
        <mxCell id="DFiNrINudKd2fo3YDIdL-327" value="Calorie burn multiplier" style="shape=partialRectangle;connectable=0;fillColor=none;top=0;left=0;bottom=0;right=0;align=left;spacingLeft=2;overflow=hidden;fontSize=11;" vertex="1" parent="DFiNrINudKd2fo3YDIdL-324">
          <mxGeometry x="156.00000000000023" width="123.99999999999977" height="22" as="geometry">
            <mxRectangle width="123.99999999999977" height="22" as="alternateBounds" />
          </mxGeometry>
        </mxCell>
        <mxCell id="DFiNrINudKd2fo3YDIdL-328" style="edgeStyle=orthogonalEdgeStyle;shape=connector;rounded=0;orthogonalLoop=1;jettySize=auto;html=1;entryX=0;entryY=0.5;entryDx=0;entryDy=0;labelBackgroundColor=default;strokeColor=default;align=center;verticalAlign=middle;fontFamily=Helvetica;fontSize=11;fontColor=default;startArrow=ERmandOne;endArrow=ERoneToMany;startSize=10;endSize=10;" edge="1" parent="1" source="DFiNrINudKd2fo3YDIdL-316" target="DFiNrINudKd2fo3YDIdL-134">
          <mxGeometry relative="1" as="geometry" />
        </mxCell>
        <mxCell id="DFiNrINudKd2fo3YDIdL-329" style="edgeStyle=none;shape=connector;curved=1;rounded=0;orthogonalLoop=1;jettySize=auto;html=1;entryX=0;entryY=0.5;entryDx=0;entryDy=0;labelBackgroundColor=default;strokeColor=default;align=center;verticalAlign=middle;fontFamily=Helvetica;fontSize=11;fontColor=default;startArrow=ERmandOne;endArrow=ERoneToMany;startSize=10;endSize=10;" edge="1" parent="1" source="DFiNrINudKd2fo3YDIdL-303" target="DFiNrINudKd2fo3YDIdL-126">
          <mxGeometry relative="1" as="geometry" />
        </mxCell>
        <mxCell id="DFiNrINudKd2fo3YDIdL-332" value="USERGOALS" style="shape=table;startSize=25;container=1;collapsible=0;childLayout=tableLayout;fixedRows=1;rowLines=1;fontStyle=1;align=center;resizeLast=1;" vertex="1" parent="1">
          <mxGeometry x="760" y="1130" width="330" height="178" as="geometry" />
        </mxCell>
        <mxCell id="DFiNrINudKd2fo3YDIdL-333" style="shape=tableRow;horizontal=0;startSize=0;swimlaneHead=0;swimlaneBody=0;fillColor=none;collapsible=0;dropTarget=0;points=[[0,0.5],[1,0.5]];portConstraint=eastwest;top=0;left=0;right=0;bottom=0;" vertex="1" parent="DFiNrINudKd2fo3YDIdL-332">
          <mxGeometry y="25" width="330" height="22" as="geometry" />
        </mxCell>
        <mxCell id="DFiNrINudKd2fo3YDIdL-334" value="int" style="shape=partialRectangle;connectable=0;fillColor=none;top=0;left=0;bottom=0;right=0;align=left;spacingLeft=2;overflow=hidden;fontSize=11;" vertex="1" parent="DFiNrINudKd2fo3YDIdL-333">
          <mxGeometry width="36" height="22" as="geometry">
            <mxRectangle width="36" height="22" as="alternateBounds" />
          </mxGeometry>
        </mxCell>
        <mxCell id="DFiNrINudKd2fo3YDIdL-335" value="UserGoalID" style="shape=partialRectangle;connectable=0;fillColor=none;top=0;left=0;bottom=0;right=0;align=left;spacingLeft=2;overflow=hidden;fontSize=11;" vertex="1" parent="DFiNrINudKd2fo3YDIdL-333">
          <mxGeometry x="36" width="94" height="22" as="geometry">
            <mxRectangle width="94" height="22" as="alternateBounds" />
          </mxGeometry>
        </mxCell>
        <mxCell id="DFiNrINudKd2fo3YDIdL-336" value="Primary Key" style="shape=partialRectangle;connectable=0;fillColor=none;top=0;left=0;bottom=0;right=0;align=left;spacingLeft=2;overflow=hidden;fontSize=11;" vertex="1" parent="DFiNrINudKd2fo3YDIdL-333">
          <mxGeometry x="130" width="200" height="22" as="geometry">
            <mxRectangle width="200" height="22" as="alternateBounds" />
          </mxGeometry>
        </mxCell>
        <mxCell id="DFiNrINudKd2fo3YDIdL-337" style="shape=tableRow;horizontal=0;startSize=0;swimlaneHead=0;swimlaneBody=0;fillColor=none;collapsible=0;dropTarget=0;points=[[0,0.5],[1,0.5]];portConstraint=eastwest;top=0;left=0;right=0;bottom=0;" vertex="1" parent="DFiNrINudKd2fo3YDIdL-332">
          <mxGeometry y="47" width="330" height="23" as="geometry" />
        </mxCell>
        <mxCell id="DFiNrINudKd2fo3YDIdL-338" value="int" style="shape=partialRectangle;connectable=0;fillColor=none;top=0;left=0;bottom=0;right=0;align=left;spacingLeft=2;overflow=hidden;fontSize=11;" vertex="1" parent="DFiNrINudKd2fo3YDIdL-337">
          <mxGeometry width="36" height="23" as="geometry">
            <mxRectangle width="36" height="23" as="alternateBounds" />
          </mxGeometry>
        </mxCell>
        <mxCell id="DFiNrINudKd2fo3YDIdL-339" value="UserID" style="shape=partialRectangle;connectable=0;fillColor=none;top=0;left=0;bottom=0;right=0;align=left;spacingLeft=2;overflow=hidden;fontSize=11;" vertex="1" parent="DFiNrINudKd2fo3YDIdL-337">
          <mxGeometry x="36" width="94" height="23" as="geometry">
            <mxRectangle width="94" height="23" as="alternateBounds" />
          </mxGeometry>
        </mxCell>
        <mxCell id="DFiNrINudKd2fo3YDIdL-340" value="FK" style="shape=partialRectangle;connectable=0;fillColor=none;top=0;left=0;bottom=0;right=0;align=left;spacingLeft=2;overflow=hidden;fontSize=11;" vertex="1" parent="DFiNrINudKd2fo3YDIdL-337">
          <mxGeometry x="130" width="200" height="23" as="geometry">
            <mxRectangle width="200" height="23" as="alternateBounds" />
          </mxGeometry>
        </mxCell>
        <mxCell id="DFiNrINudKd2fo3YDIdL-341" style="shape=tableRow;horizontal=0;startSize=0;swimlaneHead=0;swimlaneBody=0;fillColor=none;collapsible=0;dropTarget=0;points=[[0,0.5],[1,0.5]];portConstraint=eastwest;top=0;left=0;right=0;bottom=0;" vertex="1" parent="DFiNrINudKd2fo3YDIdL-332">
          <mxGeometry y="70" width="330" height="22" as="geometry" />
        </mxCell>
        <mxCell id="DFiNrINudKd2fo3YDIdL-342" value="int" style="shape=partialRectangle;connectable=0;fillColor=none;top=0;left=0;bottom=0;right=0;align=left;spacingLeft=2;overflow=hidden;fontSize=11;" vertex="1" parent="DFiNrINudKd2fo3YDIdL-341">
          <mxGeometry width="36" height="22" as="geometry">
            <mxRectangle width="36" height="22" as="alternateBounds" />
          </mxGeometry>
        </mxCell>
        <mxCell id="DFiNrINudKd2fo3YDIdL-343" value="GoalID" style="shape=partialRectangle;connectable=0;fillColor=none;top=0;left=0;bottom=0;right=0;align=left;spacingLeft=2;overflow=hidden;fontSize=11;" vertex="1" parent="DFiNrINudKd2fo3YDIdL-341">
          <mxGeometry x="36" width="94" height="22" as="geometry">
            <mxRectangle width="94" height="22" as="alternateBounds" />
          </mxGeometry>
        </mxCell>
        <mxCell id="DFiNrINudKd2fo3YDIdL-344" value="FK" style="shape=partialRectangle;connectable=0;fillColor=none;top=0;left=0;bottom=0;right=0;align=left;spacingLeft=2;overflow=hidden;fontSize=11;" vertex="1" parent="DFiNrINudKd2fo3YDIdL-341">
          <mxGeometry x="130" width="200" height="22" as="geometry">
            <mxRectangle width="200" height="22" as="alternateBounds" />
          </mxGeometry>
        </mxCell>
        <mxCell id="DFiNrINudKd2fo3YDIdL-345" style="shape=tableRow;horizontal=0;startSize=0;swimlaneHead=0;swimlaneBody=0;fillColor=none;collapsible=0;dropTarget=0;points=[[0,0.5],[1,0.5]];portConstraint=eastwest;top=0;left=0;right=0;bottom=0;" vertex="1" parent="DFiNrINudKd2fo3YDIdL-332">
          <mxGeometry y="92" width="330" height="20" as="geometry" />
        </mxCell>
        <mxCell id="DFiNrINudKd2fo3YDIdL-346" value="string" style="shape=partialRectangle;connectable=0;fillColor=none;top=0;left=0;bottom=0;right=0;align=left;spacingLeft=2;overflow=hidden;fontSize=11;" vertex="1" parent="DFiNrINudKd2fo3YDIdL-345">
          <mxGeometry width="36" height="20" as="geometry">
            <mxRectangle width="36" height="20" as="alternateBounds" />
          </mxGeometry>
        </mxCell>
        <mxCell id="DFiNrINudKd2fo3YDIdL-347" value="Status" style="shape=partialRectangle;connectable=0;fillColor=none;top=0;left=0;bottom=0;right=0;align=left;spacingLeft=2;overflow=hidden;fontSize=11;" vertex="1" parent="DFiNrINudKd2fo3YDIdL-345">
          <mxGeometry x="36" width="94" height="20" as="geometry">
            <mxRectangle width="94" height="20" as="alternateBounds" />
          </mxGeometry>
        </mxCell>
        <mxCell id="DFiNrINudKd2fo3YDIdL-348" value="Status (e.g., In Progress, Completed)" style="shape=partialRectangle;connectable=0;fillColor=none;top=0;left=0;bottom=0;right=0;align=left;spacingLeft=2;overflow=hidden;fontSize=11;" vertex="1" parent="DFiNrINudKd2fo3YDIdL-345">
          <mxGeometry x="130" width="200" height="20" as="geometry">
            <mxRectangle width="200" height="20" as="alternateBounds" />
          </mxGeometry>
        </mxCell>
        <mxCell id="DFiNrINudKd2fo3YDIdL-382" style="shape=tableRow;horizontal=0;startSize=0;swimlaneHead=0;swimlaneBody=0;fillColor=none;collapsible=0;dropTarget=0;points=[[0,0.5],[1,0.5]];portConstraint=eastwest;top=0;left=0;right=0;bottom=0;" vertex="1" parent="DFiNrINudKd2fo3YDIdL-332">
          <mxGeometry y="112" width="330" height="22" as="geometry" />
        </mxCell>
        <mxCell id="DFiNrINudKd2fo3YDIdL-383" value="date" style="shape=partialRectangle;connectable=0;fillColor=none;top=0;left=0;bottom=0;right=0;align=left;spacingLeft=2;overflow=hidden;fontSize=11;" vertex="1" parent="DFiNrINudKd2fo3YDIdL-382">
          <mxGeometry width="36" height="22" as="geometry">
            <mxRectangle width="36" height="22" as="alternateBounds" />
          </mxGeometry>
        </mxCell>
        <mxCell id="DFiNrINudKd2fo3YDIdL-384" value="DateCreated" style="shape=partialRectangle;connectable=0;fillColor=none;top=0;left=0;bottom=0;right=0;align=left;spacingLeft=2;overflow=hidden;fontSize=11;" vertex="1" parent="DFiNrINudKd2fo3YDIdL-382">
          <mxGeometry x="36" width="94" height="22" as="geometry">
            <mxRectangle width="94" height="22" as="alternateBounds" />
          </mxGeometry>
        </mxCell>
        <mxCell id="DFiNrINudKd2fo3YDIdL-385" value="" style="shape=partialRectangle;connectable=0;fillColor=none;top=0;left=0;bottom=0;right=0;align=left;spacingLeft=2;overflow=hidden;fontSize=11;" vertex="1" parent="DFiNrINudKd2fo3YDIdL-382">
          <mxGeometry x="130" width="200" height="22" as="geometry">
            <mxRectangle width="200" height="22" as="alternateBounds" />
          </mxGeometry>
        </mxCell>
        <mxCell id="DFiNrINudKd2fo3YDIdL-386" style="shape=tableRow;horizontal=0;startSize=0;swimlaneHead=0;swimlaneBody=0;fillColor=none;collapsible=0;dropTarget=0;points=[[0,0.5],[1,0.5]];portConstraint=eastwest;top=0;left=0;right=0;bottom=0;" vertex="1" parent="DFiNrINudKd2fo3YDIdL-332">
          <mxGeometry y="134" width="330" height="22" as="geometry" />
        </mxCell>
        <mxCell id="DFiNrINudKd2fo3YDIdL-387" value="date" style="shape=partialRectangle;connectable=0;fillColor=none;top=0;left=0;bottom=0;right=0;align=left;spacingLeft=2;overflow=hidden;fontSize=11;" vertex="1" parent="DFiNrINudKd2fo3YDIdL-386">
          <mxGeometry width="36" height="22" as="geometry">
            <mxRectangle width="36" height="22" as="alternateBounds" />
          </mxGeometry>
        </mxCell>
        <mxCell id="DFiNrINudKd2fo3YDIdL-388" value="LastUpdated" style="shape=partialRectangle;connectable=0;fillColor=none;top=0;left=0;bottom=0;right=0;align=left;spacingLeft=2;overflow=hidden;fontSize=11;" vertex="1" parent="DFiNrINudKd2fo3YDIdL-386">
          <mxGeometry x="36" width="94" height="22" as="geometry">
            <mxRectangle width="94" height="22" as="alternateBounds" />
          </mxGeometry>
        </mxCell>
        <mxCell id="DFiNrINudKd2fo3YDIdL-389" value="" style="shape=partialRectangle;connectable=0;fillColor=none;top=0;left=0;bottom=0;right=0;align=left;spacingLeft=2;overflow=hidden;fontSize=11;" vertex="1" parent="DFiNrINudKd2fo3YDIdL-386">
          <mxGeometry x="130" width="200" height="22" as="geometry">
            <mxRectangle width="200" height="22" as="alternateBounds" />
          </mxGeometry>
        </mxCell>
        <mxCell id="DFiNrINudKd2fo3YDIdL-390" style="shape=tableRow;horizontal=0;startSize=0;swimlaneHead=0;swimlaneBody=0;fillColor=none;collapsible=0;dropTarget=0;points=[[0,0.5],[1,0.5]];portConstraint=eastwest;top=0;left=0;right=0;bottom=0;" vertex="1" parent="DFiNrINudKd2fo3YDIdL-332">
          <mxGeometry y="156" width="330" height="22" as="geometry" />
        </mxCell>
        <mxCell id="DFiNrINudKd2fo3YDIdL-391" value="date" style="shape=partialRectangle;connectable=0;fillColor=none;top=0;left=0;bottom=0;right=0;align=left;spacingLeft=2;overflow=hidden;fontSize=11;" vertex="1" parent="DFiNrINudKd2fo3YDIdL-390">
          <mxGeometry width="36" height="22" as="geometry">
            <mxRectangle width="36" height="22" as="alternateBounds" />
          </mxGeometry>
        </mxCell>
        <mxCell id="DFiNrINudKd2fo3YDIdL-392" value="DateCompleted" style="shape=partialRectangle;connectable=0;fillColor=none;top=0;left=0;bottom=0;right=0;align=left;spacingLeft=2;overflow=hidden;fontSize=11;" vertex="1" parent="DFiNrINudKd2fo3YDIdL-390">
          <mxGeometry x="36" width="94" height="22" as="geometry">
            <mxRectangle width="94" height="22" as="alternateBounds" />
          </mxGeometry>
        </mxCell>
        <mxCell id="DFiNrINudKd2fo3YDIdL-393" value="" style="shape=partialRectangle;connectable=0;fillColor=none;top=0;left=0;bottom=0;right=0;align=left;spacingLeft=2;overflow=hidden;fontSize=11;" vertex="1" parent="DFiNrINudKd2fo3YDIdL-390">
          <mxGeometry x="130" width="200" height="22" as="geometry">
            <mxRectangle width="200" height="22" as="alternateBounds" />
          </mxGeometry>
        </mxCell>
        <mxCell id="DFiNrINudKd2fo3YDIdL-358" value="GOALPROGRESS" style="shape=table;startSize=25;container=1;collapsible=0;childLayout=tableLayout;fixedRows=1;rowLines=1;fontStyle=1;align=center;resizeLast=1;" vertex="1" parent="1">
          <mxGeometry x="760" y="1350" width="360" height="135" as="geometry" />
        </mxCell>
        <mxCell id="DFiNrINudKd2fo3YDIdL-359" style="shape=tableRow;horizontal=0;startSize=0;swimlaneHead=0;swimlaneBody=0;fillColor=none;collapsible=0;dropTarget=0;points=[[0,0.5],[1,0.5]];portConstraint=eastwest;top=0;left=0;right=0;bottom=0;" vertex="1" parent="DFiNrINudKd2fo3YDIdL-358">
          <mxGeometry y="25" width="360" height="22" as="geometry" />
        </mxCell>
        <mxCell id="DFiNrINudKd2fo3YDIdL-360" value="int" style="shape=partialRectangle;connectable=0;fillColor=none;top=0;left=0;bottom=0;right=0;align=left;spacingLeft=2;overflow=hidden;fontSize=11;" vertex="1" parent="DFiNrINudKd2fo3YDIdL-359">
          <mxGeometry width="36" height="22" as="geometry">
            <mxRectangle width="36" height="22" as="alternateBounds" />
          </mxGeometry>
        </mxCell>
        <mxCell id="DFiNrINudKd2fo3YDIdL-361" value="GoalProgressID" style="shape=partialRectangle;connectable=0;fillColor=none;top=0;left=0;bottom=0;right=0;align=left;spacingLeft=2;overflow=hidden;fontSize=11;" vertex="1" parent="DFiNrINudKd2fo3YDIdL-359">
          <mxGeometry x="36" width="94" height="22" as="geometry">
            <mxRectangle width="94" height="22" as="alternateBounds" />
          </mxGeometry>
        </mxCell>
        <mxCell id="DFiNrINudKd2fo3YDIdL-362" value="PK" style="shape=partialRectangle;connectable=0;fillColor=none;top=0;left=0;bottom=0;right=0;align=left;spacingLeft=2;overflow=hidden;fontSize=11;" vertex="1" parent="DFiNrINudKd2fo3YDIdL-359">
          <mxGeometry x="130" width="230" height="22" as="geometry">
            <mxRectangle width="230" height="22" as="alternateBounds" />
          </mxGeometry>
        </mxCell>
        <mxCell id="DFiNrINudKd2fo3YDIdL-363" style="shape=tableRow;horizontal=0;startSize=0;swimlaneHead=0;swimlaneBody=0;fillColor=none;collapsible=0;dropTarget=0;points=[[0,0.5],[1,0.5]];portConstraint=eastwest;top=0;left=0;right=0;bottom=0;" vertex="1" parent="DFiNrINudKd2fo3YDIdL-358">
          <mxGeometry y="47" width="360" height="22" as="geometry" />
        </mxCell>
        <mxCell id="DFiNrINudKd2fo3YDIdL-364" value="int" style="shape=partialRectangle;connectable=0;fillColor=none;top=0;left=0;bottom=0;right=0;align=left;spacingLeft=2;overflow=hidden;fontSize=11;" vertex="1" parent="DFiNrINudKd2fo3YDIdL-363">
          <mxGeometry width="36" height="22" as="geometry">
            <mxRectangle width="36" height="22" as="alternateBounds" />
          </mxGeometry>
        </mxCell>
        <mxCell id="DFiNrINudKd2fo3YDIdL-365" value="UserGoalID" style="shape=partialRectangle;connectable=0;fillColor=none;top=0;left=0;bottom=0;right=0;align=left;spacingLeft=2;overflow=hidden;fontSize=11;" vertex="1" parent="DFiNrINudKd2fo3YDIdL-363">
          <mxGeometry x="36" width="94" height="22" as="geometry">
            <mxRectangle width="94" height="22" as="alternateBounds" />
          </mxGeometry>
        </mxCell>
        <mxCell id="DFiNrINudKd2fo3YDIdL-366" value="FK" style="shape=partialRectangle;connectable=0;fillColor=none;top=0;left=0;bottom=0;right=0;align=left;spacingLeft=2;overflow=hidden;fontSize=11;" vertex="1" parent="DFiNrINudKd2fo3YDIdL-363">
          <mxGeometry x="130" width="230" height="22" as="geometry">
            <mxRectangle width="230" height="22" as="alternateBounds" />
          </mxGeometry>
        </mxCell>
        <mxCell id="DFiNrINudKd2fo3YDIdL-367" style="shape=tableRow;horizontal=0;startSize=0;swimlaneHead=0;swimlaneBody=0;fillColor=none;collapsible=0;dropTarget=0;points=[[0,0.5],[1,0.5]];portConstraint=eastwest;top=0;left=0;right=0;bottom=0;" vertex="1" parent="DFiNrINudKd2fo3YDIdL-358">
          <mxGeometry y="69" width="360" height="22" as="geometry" />
        </mxCell>
        <mxCell id="DFiNrINudKd2fo3YDIdL-368" value="date" style="shape=partialRectangle;connectable=0;fillColor=none;top=0;left=0;bottom=0;right=0;align=left;spacingLeft=2;overflow=hidden;fontSize=11;" vertex="1" parent="DFiNrINudKd2fo3YDIdL-367">
          <mxGeometry width="36" height="22" as="geometry">
            <mxRectangle width="36" height="22" as="alternateBounds" />
          </mxGeometry>
        </mxCell>
        <mxCell id="DFiNrINudKd2fo3YDIdL-369" value="ProgressDate" style="shape=partialRectangle;connectable=0;fillColor=none;top=0;left=0;bottom=0;right=0;align=left;spacingLeft=2;overflow=hidden;fontSize=11;" vertex="1" parent="DFiNrINudKd2fo3YDIdL-367">
          <mxGeometry x="36" width="94" height="22" as="geometry">
            <mxRectangle width="94" height="22" as="alternateBounds" />
          </mxGeometry>
        </mxCell>
        <mxCell id="DFiNrINudKd2fo3YDIdL-370" value="Date of the progress update" style="shape=partialRectangle;connectable=0;fillColor=none;top=0;left=0;bottom=0;right=0;align=left;spacingLeft=2;overflow=hidden;fontSize=11;" vertex="1" parent="DFiNrINudKd2fo3YDIdL-367">
          <mxGeometry x="130" width="230" height="22" as="geometry">
            <mxRectangle width="230" height="22" as="alternateBounds" />
          </mxGeometry>
        </mxCell>
        <mxCell id="DFiNrINudKd2fo3YDIdL-371" style="shape=tableRow;horizontal=0;startSize=0;swimlaneHead=0;swimlaneBody=0;fillColor=none;collapsible=0;dropTarget=0;points=[[0,0.5],[1,0.5]];portConstraint=eastwest;top=0;left=0;right=0;bottom=0;" vertex="1" parent="DFiNrINudKd2fo3YDIdL-358">
          <mxGeometry y="91" width="360" height="22" as="geometry" />
        </mxCell>
        <mxCell id="DFiNrINudKd2fo3YDIdL-372" value="string" style="shape=partialRectangle;connectable=0;fillColor=none;top=0;left=0;bottom=0;right=0;align=left;spacingLeft=2;overflow=hidden;fontSize=11;" vertex="1" parent="DFiNrINudKd2fo3YDIdL-371">
          <mxGeometry width="36" height="22" as="geometry">
            <mxRectangle width="36" height="22" as="alternateBounds" />
          </mxGeometry>
        </mxCell>
        <mxCell id="DFiNrINudKd2fo3YDIdL-373" value="Progress" style="shape=partialRectangle;connectable=0;fillColor=none;top=0;left=0;bottom=0;right=0;align=left;spacingLeft=2;overflow=hidden;fontSize=11;" vertex="1" parent="DFiNrINudKd2fo3YDIdL-371">
          <mxGeometry x="36" width="94" height="22" as="geometry">
            <mxRectangle width="94" height="22" as="alternateBounds" />
          </mxGeometry>
        </mxCell>
        <mxCell id="DFiNrINudKd2fo3YDIdL-374" value="Description or amount of progress" style="shape=partialRectangle;connectable=0;fillColor=none;top=0;left=0;bottom=0;right=0;align=left;spacingLeft=2;overflow=hidden;fontSize=11;" vertex="1" parent="DFiNrINudKd2fo3YDIdL-371">
          <mxGeometry x="130" width="230" height="22" as="geometry">
            <mxRectangle width="230" height="22" as="alternateBounds" />
          </mxGeometry>
        </mxCell>
        <mxCell id="DFiNrINudKd2fo3YDIdL-402" style="shape=tableRow;horizontal=0;startSize=0;swimlaneHead=0;swimlaneBody=0;fillColor=none;collapsible=0;dropTarget=0;points=[[0,0.5],[1,0.5]];portConstraint=eastwest;top=0;left=0;right=0;bottom=0;" vertex="1" parent="DFiNrINudKd2fo3YDIdL-358">
          <mxGeometry y="113" width="360" height="22" as="geometry" />
        </mxCell>
        <mxCell id="DFiNrINudKd2fo3YDIdL-403" value="int" style="shape=partialRectangle;connectable=0;fillColor=none;top=0;left=0;bottom=0;right=0;align=left;spacingLeft=2;overflow=hidden;fontSize=11;" vertex="1" parent="DFiNrINudKd2fo3YDIdL-402">
          <mxGeometry width="36" height="22" as="geometry">
            <mxRectangle width="36" height="22" as="alternateBounds" />
          </mxGeometry>
        </mxCell>
        <mxCell id="DFiNrINudKd2fo3YDIdL-404" value="ProgressAmount" style="shape=partialRectangle;connectable=0;fillColor=none;top=0;left=0;bottom=0;right=0;align=left;spacingLeft=2;overflow=hidden;fontSize=11;" vertex="1" parent="DFiNrINudKd2fo3YDIdL-402">
          <mxGeometry x="36" width="94" height="22" as="geometry">
            <mxRectangle width="94" height="22" as="alternateBounds" />
          </mxGeometry>
        </mxCell>
        <mxCell id="DFiNrINudKd2fo3YDIdL-405" value="Amount of progress made in numerical form" style="shape=partialRectangle;connectable=0;fillColor=none;top=0;left=0;bottom=0;right=0;align=left;spacingLeft=2;overflow=hidden;fontSize=11;" vertex="1" parent="DFiNrINudKd2fo3YDIdL-402">
          <mxGeometry x="130" width="230" height="22" as="geometry">
            <mxRectangle width="230" height="22" as="alternateBounds" />
          </mxGeometry>
        </mxCell>
        <mxCell id="DFiNrINudKd2fo3YDIdL-377" style="shape=connector;rounded=0;orthogonalLoop=1;jettySize=auto;html=1;exitX=0;exitY=0.5;exitDx=0;exitDy=0;labelBackgroundColor=default;strokeColor=default;align=center;verticalAlign=middle;fontFamily=Helvetica;fontSize=11;fontColor=default;startArrow=ERmandOne;endArrow=ERoneToMany;startSize=10;endSize=10;entryX=0;entryY=0.5;entryDx=0;entryDy=0;edgeStyle=orthogonalEdgeStyle;" edge="1" parent="1" source="DFiNrINudKd2fo3YDIdL-333" target="DFiNrINudKd2fo3YDIdL-363">
          <mxGeometry relative="1" as="geometry">
            <mxPoint x="740" y="1410" as="targetPoint" />
          </mxGeometry>
        </mxCell>
      </root>
    </mxGraphModel>
  </diagram>
</mxfile>
